<?xml version="1.0" encoding="utf-8"?>
<svg xmlns="http://www.w3.org/2000/svg" version="1.1" preserveAspectRatio="none" x="0px" y="0px" width="30px" height="30px" viewBox="0 0 30 30">
  <path stroke="none" d=" M 0 0 L 0 30 30 30 30 0 Z" style="fill: rgb(77, 21, 42);"/>
  <path stroke="none" d=" M 0 30 L 5 30 0 25 0 30 M 0 15 L 0 20 10 30 15 30 0 15 M 0 5 L 0 10 20 30 25 30 0 5 M 5 0 L 0 0 30 30 30 25 5 0 M 30 20 L 30 15 15 0 10 0 30 20 M 30 5 L 25 0 20 0 30 10 30 5 Z" style="fill: rgb(114, 31, 50);"/>
</svg>